<svg width="36" height="37" viewBox="0 0 36 37" fill="none" xmlns="http://www.w3.org/2000/svg">
<g clip-path="url(#clip0_1_682)">
<path d="M36 0H0V37H36V0Z" fill="#008080"/>
<path fill-rule="evenodd" clip-rule="evenodd" d="M19.4349 35.9549C19.3202 35.9064 19.1873 35.7394 18.9284 35.3187C17.4014 32.837 17.0538 31.1171 17.6664 29.0732C17.8065 28.6055 17.9561 28.2116 18.4183 27.0933C19.0937 25.4587 19.3026 24.8175 19.5881 23.5023C19.7335 22.8324 19.8168 22.5332 19.8756 22.4696C19.9282 22.4127 19.9805 22.4847 20.4229 23.2241C21.3123 24.7107 21.6313 25.5649 21.9039 27.1908C22.1607 28.7227 22.0844 30.1602 21.653 31.9138C21.0993 34.165 19.9883 36.1891 19.4349 35.9549ZM24.4816 32.3724C24.4768 31.5099 24.4031 30.6248 24.2368 29.4312C24.0366 27.9952 23.9451 27.5824 23.5238 26.215C22.8002 23.8664 22.6707 23.1938 22.6747 21.8043C22.6769 21.0351 22.7789 19.5741 22.875 18.9354C22.9165 18.6595 23.0247 18.2709 23.0592 18.2735C23.0711 18.2743 23.1184 18.3578 23.1645 18.4589C23.3048 18.767 24.6859 20.5895 25.5922 21.6627C26.3978 22.6164 27.4446 23.9683 27.6404 24.3076C28.4222 25.6622 28.6454 27.1575 28.2814 28.6008C28.0279 29.6055 27.361 30.7163 26.4429 31.6628C25.8457 32.2785 24.729 33.1434 24.5314 33.1433C24.4978 33.1433 24.4848 32.9422 24.4816 32.3724ZM15.1814 32.7774C14.5679 32.4803 12.9535 30.9124 12.5747 30.2457C12.1779 29.5475 11.8863 28.7889 11.7571 28.1186C11.6657 27.6449 11.6659 26.722 11.7576 26.2736C12.0482 24.8511 12.5852 24.0023 15.0295 21.1013C16.3647 19.5167 16.7677 18.9861 17.0114 18.4916L17.1091 18.2936L17.1842 18.4877C17.2934 18.7698 17.3899 19.2883 17.443 19.8779C17.5 20.5112 17.4704 22.1468 17.3875 22.9438C17.261 24.1594 17.1786 24.5453 16.7751 25.8117C15.9601 28.3694 15.8482 28.9732 15.8111 31.0161C15.7888 32.2406 15.7768 32.4423 15.7176 32.5848C15.6516 32.7438 15.5193 32.8705 15.4201 32.8697C15.3932 32.8695 15.2858 32.828 15.1814 32.7774H15.1814ZM9.53963 26.6309C9.32548 26.4901 8.80502 25.9321 8.60424 25.6281C8.22953 25.0607 7.8846 24.1728 7.71774 23.3461C7.61326 22.8285 7.57484 21.8583 7.6403 21.3906C7.70246 20.9464 7.85948 20.4792 8.13991 19.9041C8.47755 19.2117 8.7474 18.8106 9.15987 18.3881C9.59606 17.9412 9.95496 17.6897 10.662 17.3354C11.1101 17.1109 12.7243 16.3983 12.7849 16.3983C12.8301 16.3983 15.9266 14.9726 16.1582 14.8451C16.2986 14.7679 16.4222 14.7136 16.4328 14.7245C16.4777 14.7706 16.2882 15.7144 16.1438 16.1641C15.8074 17.2112 15.1816 18.5362 14.6965 19.2282C14.3514 19.7204 13.8686 20.263 13.3815 20.7057C12.1595 21.8165 11.4073 22.6791 11.01 23.4255C10.8153 23.7913 10.7016 24.1765 10.5669 24.9269C10.3367 26.2098 10.235 26.5332 10.0197 26.6682C9.85745 26.7699 9.73666 26.7605 9.53963 26.6309ZM20.2886 21.6801C19.3316 20.7441 18.3998 18.9742 18.1268 17.5737C18.0275 17.0644 17.9918 16.1817 18.0468 15.5981C18.1603 14.3959 18.498 13.5695 19.3652 12.3718C19.5213 12.1563 19.6435 11.9743 19.6367 11.9674C19.63 11.9604 19.4024 12.0774 19.1309 12.2274C17.9679 12.8698 16.3648 13.7176 15.9693 13.8995C15.7342 14.0075 15.2301 14.2257 14.8489 14.3843C13.4781 14.9547 12.7397 15.2793 12.0862 15.5986C11.146 16.0581 10.9848 16.0958 10.9848 15.8563C10.9848 15.6994 11.0838 15.4742 11.4439 14.8113C11.8243 14.1112 12.0263 13.5489 11.8973 13.5489C11.877 13.5489 11.615 13.8431 11.3152 14.2027C10.282 15.442 9.58429 16.0076 9.40307 15.7529C9.32876 15.6484 9.33997 15.2866 9.42791 14.9514C9.97456 12.8681 10.2253 11.6195 10.3606 10.3065C10.4293 9.64064 10.4225 8.46652 10.3495 8.39155C10.3005 8.34115 10.1592 8.39258 9.31382 8.76858C7.82418 9.43113 7.59447 9.52828 7.24696 9.64269C6.76659 9.80084 6.48241 9.83296 6.32126 9.7473C5.90608 9.52664 6.2922 8.60672 7.34692 7.30367C7.56414 7.03532 7.89046 6.65539 8.0721 6.45937C8.25374 6.26336 8.40235 6.08952 8.40235 6.07306C8.40235 6.0566 8.22583 6.05486 8.01008 6.06919C7.61666 6.09533 7.43306 6.12354 6.4465 6.30937C5.72553 6.44517 4.62683 6.48591 4.26492 6.39027C4.00927 6.32271 3.80114 6.18917 3.72571 6.0443C3.54489 5.69705 3.85596 5.10854 4.64722 4.30098C5.1482 3.78967 5.44288 3.56278 5.9148 3.325C6.79614 2.88094 7.81338 2.62358 9.42775 2.43623C10.2831 2.33697 13.4557 2.33724 14.6497 2.43668C16.0859 2.5563 17.28 2.69203 18.3715 2.85975C19.0194 2.9593 18.9403 2.95736 19.7957 2.89466C20.6431 2.83253 22.2041 2.86019 22.9289 2.95018C25.3371 3.24917 26.7778 3.95757 27.5079 5.20157C27.7605 5.63199 27.836 5.68644 28.3928 5.83963C30.4353 6.40155 31.8808 7.50141 32.4805 8.94989C33.0173 10.2463 32.8967 11.8104 32.1137 13.7066L31.9296 14.1525L31.8993 13.9776C31.8541 13.7173 31.7584 13.3911 31.6821 13.2366C31.5678 13.0056 31.3107 12.7028 31.0726 12.5188C30.8288 12.3305 30.8478 12.3355 30.0877 12.2593C29.5766 12.2081 28.5255 12.0637 27.8381 11.9503C26.7637 11.773 25.9919 11.8932 25.1764 12.3648C24.7054 12.6373 24.0564 13.2248 23.6111 13.7819C23.2419 14.2438 22.7524 15.0468 22.3981 15.7718C21.6493 17.3043 20.9775 19.6436 20.8227 21.2579C20.7556 21.9579 20.7448 22.019 20.6878 22.019C20.6588 22.019 20.4792 21.8665 20.2886 21.6801ZM24.5049 7.7448C25.1712 7.54947 25.6065 7.18707 25.6061 6.82809C25.606 6.65518 25.4961 6.47972 25.1926 6.16786C24.512 5.46828 23.9305 5.30489 22.9195 5.5291C22.674 5.58354 22.3236 5.63884 22.1408 5.65197C21.958 5.66511 21.8085 5.68899 21.8085 5.70504C21.8085 5.72109 21.8982 5.79208 22.0079 5.8628C22.1176 5.93351 22.2134 5.99583 22.221 6.00129C22.2285 6.00675 22.1986 6.12101 22.1545 6.25519C22.0509 6.57045 22.0537 6.76943 22.1651 7.01093C22.3661 7.44662 22.8786 7.7619 23.5236 7.84673C23.8403 7.88838 24.1111 7.86025 24.5049 7.7448Z" fill="white"/>
</g>
<defs>
<clipPath id="clip0_1_682">
<rect width="36" height="37" fill="white"/>
</clipPath>
</defs>
</svg>
